<?xml version="1.0" encoding="utf-8"?>
<!-- Generator: Adobe Illustrator 27.9.0, SVG Export Plug-In . SVG Version: 6.00 Build 0)  -->
<svg version="1.1" id="_レイヤー_2" xmlns="http://www.w3.org/2000/svg" xmlns:xlink="http://www.w3.org/1999/xlink" x="0px"
	 y="0px" viewBox="0 0 850 850" style="enable-background:new 0 0 850 850;" xml:space="preserve">
<style type="text/css">
	.st0{fill:none;stroke:#333333;stroke-width:50;stroke-linecap:round;stroke-miterlimit:10;}
	.st1{fill:#333333;}
	.st2{stroke:#1A1A1A;stroke-width:0.61;stroke-miterlimit:10;}
	.st3{fill:#FFFFFF;}
	.st4{font-family:'Futura-Medium';}
	.st5{font-size:100px;}
	.st6{fill:#8CC63F;stroke:#8CC63F;stroke-width:0.38;stroke-miterlimit:10;}
	.st7{fill:#808080;stroke:#1A1A1A;stroke-width:5.000000e-02;stroke-miterlimit:10;}
</style>
<g id="_レイヤー_4">
	<circle class="st0" cx="425" cy="425" r="350"/>
	<circle class="st1" cx="425" cy="425" r="314"/>
	<circle class="st2" cx="425" cy="425" r="115.4"/>
	<text transform="matrix(-0.9531 0.3027 -0.3027 -0.9531 344.5014 123.0007)" class="st3 st4 st5">I</text>
	<text transform="matrix(-0.891 0.454 -0.454 -0.891 309.0414 133.6703)" class="st3 st4 st5">S</text>
	<text transform="matrix(-0.7335 0.6797 -0.6797 -0.7335 245.2915 165.7403)" class="st3 st4 st5">O</text>
	<text transform="matrix(-0.505 0.8631 -0.8631 -0.505 172.4613 238.2499)" class="st3 st4 st5">K</text>
	<text transform="matrix(-0.2651 0.9642 -0.9642 -0.2651 133.8514 306.4701)" class="st3 st4 st5">A</text>
	<text transform="matrix(7.132329e-02 0.9975 -0.9975 7.132329e-02 109.9099 393.64)" class="st3 st4 st5">W</text>
	<text transform="matrix(0.3978 0.9175 -0.9175 0.3978 123.9297 514.3)" class="st3 st4 st5">A</text>
	<text transform="matrix(0.5714 0.8207 -0.8207 0.5714 159.6495 589.26)" class="st3 st4 st5">’</text>
	<text transform="matrix(0.8017 0.5978 -0.5978 0.8017 214.8304 656.7802)" class="st3 st4 st5">S</text>
	<text transform="matrix(0.9819 -0.1896 0.1896 0.9819 456.7599 735.52)" class="st3 st4 st5">P</text>
	<text transform="matrix(0.8966 -0.4428 0.4428 0.8966 522.36 723.52)" class="st3 st4 st5">O</text>
	<text transform="matrix(0.7396 -0.673 0.673 0.7396 612.1099 674.9501)" class="st3 st4 st5">R</text>
	<text transform="matrix(0.5872 -0.8094 0.8094 0.5872 662.4799 627.0003)" class="st3 st4 st5">T</text>
	<text transform="matrix(0.4266 -0.9045 0.9045 0.4266 695.2498 580.66)" class="st3 st4 st5">F</text>
	<text transform="matrix(0.1795 -0.9838 0.9838 0.1795 723.0299 523.9205)" class="st3 st4 st5">O</text>
	<text transform="matrix(-0.1023 -0.9948 0.9948 -0.1023 737.5299 422.7391)" class="st3 st4 st5">R</text>
	<text transform="matrix(-0.2676 -0.9635 0.9635 -0.2676 728.6799 355.5396)" class="st3 st4 st5">I</text>
	<text transform="matrix(-0.473 -0.8811 0.8811 -0.473 720.0404 316.4102)" class="st3 st4 st5">O</text>
	<circle class="st6" cx="425" cy="425" r="72.8"/>
	<circle class="st7" cx="425" cy="425" r="8.7"/>
</g>
</svg>
